<svg width="25" height="25" viewBox="0 0 25 25" fill="none" xmlns="http://www.w3.org/2000/svg">
<path d="M2.48447 23.8095C1.80124 23.8095 1.21615 23.5762 0.729194 23.1095C0.242238 22.6429 -0.000826048 22.0825 2.10906e-06 21.4286V4.7619C2.10906e-06 4.10714 0.24348 3.54643 0.730437 3.07976C1.21739 2.6131 1.80207 2.38016 2.48447 2.38095H3.72671V0H6.21118V2.38095H16.1491V0H18.6335V2.38095H19.8758C20.559 2.38095 21.1441 2.61429 21.6311 3.08095C22.118 3.54762 22.3611 4.10794 22.3602 4.7619V11.9048H19.8758V9.52381H2.48447V21.4286H11.1801V23.8095H2.48447ZM23.7578 17.8571L21.118 15.3274L22.0186 14.4643C22.2464 14.246 22.5362 14.1369 22.8882 14.1369C23.2402 14.1369 23.53 14.246 23.7578 14.4643L24.6584 15.3274C24.8861 15.5456 25 15.8234 25 16.1607C25 16.498 24.8861 16.7758 24.6584 16.994L23.7578 17.8571ZM13.6646 25V22.4702L20.2484 16.1607L22.8882 18.6905L16.3043 25H13.6646Z" fill="#BFBFBF"/>
</svg>
